<svg version="1.1" id="Layer_1" xmlns="http://www.w3.org/2000/svg" xmlns:xlink="http://www.w3.org/1999/xlink" x="0px" y="0px"
	 width="10%" viewBox="0 0 1024 1024" enable-background="new 0 0 1024 1024" xml:space="preserve">
<path fill="#FFE0D6" opacity="1.000000" stroke="none" 
	d="
M208.660843,214.320511 
	C240.873077,242.295715 272.828552,270.026520 304.750244,297.796143 
	C340.313599,328.733734 375.883850,359.663605 411.381775,390.676208 
	C447.010406,421.803070 482.563873,453.016052 518.130188,484.214203 
	C536.915344,500.692169 555.659363,517.217102 574.416260,533.727234 
	C575.791382,534.937744 577.085938,536.241150 578.479553,537.428955 
	C580.643433,539.273193 580.407532,540.997986 578.483337,542.876404 
	C554.523682,566.266541 532.080872,591.187378 507.177551,613.622070 
	C501.987671,618.297546 498.020325,618.355408 492.126984,613.337158 
	C482.617554,605.239746 473.359100,596.840515 464.146698,588.402649 
	C410.334198,539.114746 356.472809,489.878143 303.678650,439.493622 
	C272.941101,410.159058 242.244446,380.770813 214.039749,348.935028 
	C192.175476,324.255951 172.698898,297.959869 160.315811,267.043488 
	C152.801987,248.284012 147.703308,228.950943 145.501022,208.786636 
	C143.977798,194.839996 143.300827,180.963989 144.664536,166.998093 
	C144.843842,165.161789 144.903946,163.337799 146.891449,161.165588 
	C167.383804,178.802200 187.886490,196.447708 208.660843,214.320511 
z"/>
<path fill="#FFE0D6" opacity="1.000000" stroke="none" 
	d="
M566.083069,639.919006 
	C556.412354,629.845825 546.995300,620.019043 536.550232,609.119568 
	C541.287170,604.769226 546.587097,600.214722 551.530334,595.301453 
	C564.761658,582.150635 577.890991,568.895874 590.936646,555.560852 
	C593.570435,552.868652 595.398132,552.640625 598.324097,555.315369 
	C680.698059,630.618042 764.060425,704.822571 847.323853,779.136108 
	C859.234009,789.766052 866.672302,802.582336 866.770813,818.629456 
	C866.873108,835.322144 860.376526,849.329712 845.696838,858.126404 
	C831.149902,866.843628 816.000427,866.760864 801.939453,857.061646 
	C788.066040,847.491943 776.408691,835.192322 763.996887,823.852844 
	C724.767578,788.012878 685.499023,752.213440 646.541443,716.079346 
	C619.553589,691.047424 593.054321,665.488647 566.083069,639.919006 
M600.689453,615.444885 
	C600.572937,616.925171 600.283752,618.415710 600.370422,619.883972 
	C600.702942,625.516724 604.101501,629.089966 608.990540,630.993591 
	C613.430603,632.722351 617.897095,632.061279 621.362549,628.425781 
	C625.004761,624.604919 626.942566,620.168457 624.907471,614.837341 
	C622.955261,609.723572 619.207336,606.775269 613.725037,606.353088 
	C607.391785,605.865356 603.459229,609.222961 600.689453,615.444885 
M817.216309,798.357178 
	C810.000549,798.542114 805.719788,801.864807 803.938904,808.663147 
	C802.740906,813.236084 805.292847,819.052307 809.733582,821.869934 
	C814.476868,824.879578 820.615479,824.316284 824.931091,820.477356 
	C828.841064,816.999084 829.733093,812.483582 828.526001,807.743530 
	C827.182495,802.467834 823.426575,799.368469 817.216309,798.357178 
M727.352295,727.927124 
	C732.029175,722.818726 733.101868,717.365112 730.385437,712.506409 
	C727.630310,707.578369 721.806030,704.604492 717.062256,705.703613 
	C711.448425,707.004211 707.291870,711.066711 706.512756,716.430542 
	C705.775146,721.508911 707.781738,725.680786 711.891113,728.558472 
	C716.764099,731.970886 721.840271,731.849060 727.352295,727.927124 
z"/>
<path fill="#FFE0D6" opacity="1.000000" stroke="none" 
	d="
M620.051270,454.055969 
	C604.098572,469.944702 588.345093,485.530640 572.744385,501.267914 
	C570.098450,503.936981 568.293518,504.298889 565.362305,501.611511 
	C556.921387,493.872742 547.826172,486.848907 539.703613,478.544647 
	C542.492310,474.326111 546.216431,471.458862 549.492615,468.212341 
	C567.957764,449.914642 586.507324,431.702087 605.049866,413.482666 
	C612.925842,405.743866 617.130432,396.597809 616.707031,385.351135 
	C616.235901,372.840729 616.224182,360.385498 622.587158,348.886047 
	C626.834351,341.210205 632.486572,334.656738 638.434753,328.391510 
	C663.222961,302.282166 689.462646,277.629211 715.158691,252.431442 
	C743.234375,224.900146 770.536621,196.581558 799.276245,169.727036 
	C805.728577,163.697952 812.274170,157.764908 818.903259,151.931335 
	C820.733276,150.320969 822.640991,147.219070 825.619812,149.767975 
	C828.494080,152.227463 825.968872,154.735474 824.741394,156.874329 
	C815.414368,173.127640 803.606873,187.604889 791.791565,202.035889 
	C751.776123,250.910019 709.416748,297.746216 667.241882,344.738892 
	C660.521057,352.227448 655.471924,360.284637 657.713623,370.828400 
	C661.646729,389.327148 683.283325,395.834259 697.668396,382.725098 
	C709.118774,372.290436 720.245972,361.494049 731.341797,350.678833 
	C770.957153,312.065002 810.444214,273.319305 850.106873,234.754257 
	C859.419312,225.699524 869.002380,216.902573 879.122192,208.726624 
	C879.898804,208.099182 880.652100,207.427094 881.493469,206.898697 
	C883.447937,205.671112 885.521301,204.943939 887.353882,206.994217 
	C888.970825,208.803192 888.382874,210.789230 887.129089,212.493561 
	C883.280090,217.725677 879.509766,223.029724 875.403870,228.056747 
	C824.912964,289.876434 773.410645,350.815430 717.743591,408.100739 
	C708.233704,417.887085 697.841553,426.469971 683.781067,428.777069 
	C676.572083,429.959961 669.382446,430.694519 661.957825,429.659943 
	C652.271729,428.310181 643.434082,431.053131 636.235168,437.925201 
	C630.812744,443.101532 625.605103,448.502869 620.051270,454.055969 
z"/>
<path fill="#FFE0D6" opacity="1.000000" stroke="none" 
	d="
M347.866028,664.870667 
	C374.245941,638.884338 400.373901,613.164795 426.501160,587.444519 
	C431.457733,582.565186 431.479889,582.539368 436.309479,587.166809 
	C443.890198,594.430237 451.249817,601.938782 459.077942,608.923340 
	C462.738525,612.189575 462.058075,614.141663 459.042023,617.243652 
	C431.858582,645.201965 404.650940,673.139709 377.743591,701.362976 
	C333.703003,747.557495 289.611572,793.706116 246.419052,840.701965 
	C240.222031,847.444702 233.780579,853.992676 227.093216,860.246948 
	C219.235092,867.596069 210.084030,870.611877 199.575821,866.285156 
	C188.607452,861.768982 182.720978,853.064270 182.070496,841.632080 
	C181.549744,832.480164 187.244476,825.410767 193.083969,818.824158 
	C210.464691,799.219971 229.889526,781.648682 248.435242,763.205994 
	C281.401642,730.422729 314.544678,697.817078 347.866028,664.870667 
z"/>
</svg>